<?xml version="1.0" encoding="UTF-8"?>
<svg xmlns="http://www.w3.org/2000/svg" xmlns:xlink="http://www.w3.org/1999/xlink" width="752pt" height="752pt" viewBox="0 0 752 752" version="1.1">
<g id="surface1">
<path style=" stroke:none;fill-rule:nonzero;fill:rgb(22.745098%,33.333333%,41.568627%);fill-opacity:1;" d="M 578.96875 488.648438 C 575.101562 488.429688 570.757812 487.628906 566.851562 486.714844 C 562.644531 485.730469 561.871094 480.101562 565.648438 478.003906 C 617.449219 449.253906 645.726562 404.585938 658.382812 379.347656 C 660.589844 374.949219 655.402344 370.613281 651.375 373.441406 C 647.800781 375.949219 644.449219 377.914062 641.351562 379.453125 C 636.4375 381.894531 631.957031 375.519531 635.984375 371.792969 C 667.171875 342.949219 696.488281 284.792969 709.691406 256.332031 C 711.53125 252.371094 707.457031 248.222656 703.488281 250.046875 C 698.582031 252.296875 693.335938 253.773438 688.527344 254.738281 C 683.816406 255.683594 680.898438 249.703125 684.539062 246.566406 C 725.09375 211.65625 739.5625 155.105469 744.421875 127.109375 C 745.148438 122.917969 740.546875 120.121094 737 122.46875 C 731.003906 126.429688 723.824219 127.722656 718.089844 128.019531 C 714.003906 128.230469 711.640625 123.433594 714.257812 120.285156 C 762.820312 61.890625 742.996094 14.308594 736.765625 2.539062 C 735.824219 0.761719 733.925781 -0.21875 731.9375 0.0390625 C 718.730469 1.757812 668.441406 13.070312 648.847656 86.453125 C 647.789062 90.410156 642.507812 91.25 640.320312 87.792969 C 637.25 82.945312 634.15625 76.335938 633.921875 69.152344 C 633.785156 64.898438 628.847656 62.761719 625.847656 65.777344 C 605.804688 85.921875 568.015625 130.40625 562.957031 183.679688 C 562.503906 188.464844 555.9375 189.535156 553.984375 185.144531 C 551.992188 180.664062 550.164062 175.53125 549.167969 170.226562 C 548.363281 165.929688 542.625 165.003906 540.453125 168.792969 C 524.859375 196.015625 494.332031 253.550781 488.816406 295.667969 C 488.101562 301.109375 480.3125 301.136719 479.464844 295.714844 C 478.929688 292.296875 478.597656 288.425781 478.578125 284.058594 C 478.558594 279.136719 472.023438 277.410156 469.707031 281.753906 C 456.425781 306.667969 436.308594 355.558594 442.78125 414.445312 C 443.25 418.742188 438.210938 421.363281 434.976562 418.5 C 431.972656 415.839844 428.808594 412.753906 426.394531 409.726562 C 424.101562 406.84375 419.53125 407.78125 418.300781 411.253906 C 413.582031 424.535156 408.226562 451.953125 422.804688 490.542969 C 424.25 494.378906 420.414062 498.222656 416.644531 496.605469 C 416.519531 496.554688 416.398438 496.5 416.277344 496.445312 C 412.515625 494.765625 408.453125 498.023438 409.617188 501.976562 C 414.960938 520.148438 423.46875 545.117188 436.03125 571.691406 C 436.945312 573.628906 439.109375 574.746094 441.21875 574.375 C 470.167969 569.265625 495.460938 561.785156 513.375 555.644531 C 517.277344 554.308594 517.589844 549.113281 514.042969 547.011719 C 513.925781 546.941406 513.816406 546.875 513.703125 546.804688 C 510.203125 544.664062 511.121094 539.308594 515.089844 538.273438 C 555.007812 527.871094 574.289062 507.65625 582.40625 496.128906 C 584.523438 493.125 582.648438 488.855469 578.96875 488.648438 Z M 578.96875 488.648438 "/>
<path style=" stroke:none;fill-rule:nonzero;fill:rgb(83.529412%,83.921569%,85.882353%);fill-opacity:1;" d="M 701.679688 71.738281 C 701.679688 71.738281 455.023438 448.28125 377.746094 726.003906 L 395.925781 700.3125 C 395.921875 700.3125 608.570312 231.148438 701.679688 71.738281 Z M 701.679688 71.738281 "/>
<path style=" stroke:none;fill-rule:nonzero;fill:rgb(39.215686%,47.45098%,54.117647%);fill-opacity:1;" d="M 363.695312 731.265625 C 262.570312 733.390625 235.667969 710.675781 228.683594 697.015625 C 218.4375 676.980469 236.601562 652.457031 237.078125 651.804688 C 241.191406 645.800781 253.699219 627.535156 242.953125 614.542969 C 237.054688 607.390625 221.367188 588.378906 71.804688 653.632812 C 59.832031 658.839844 47.546875 660.230469 36.335938 657.652344 C 34.1875 657.164062 27.136719 655.3125 26.5625 652.222656 C 23.699219 636.71875 74.296875 591.019531 123.613281 557.785156 L 110.285156 552.121094 C 104.550781 549.683594 98.011719 550.421875 92.96875 554.078125 C 57.433594 579.84375 0.792969 626.132812 6.304688 655.964844 C 7.707031 663.554688 13.253906 673.503906 31.714844 677.738281 C 47.296875 681.328125 63.992188 679.515625 80.050781 672.515625 C 171.738281 632.511719 216.980469 623.761719 226.496094 627.519531 C 226.230469 629.082031 225.09375 632.847656 220.386719 639.742188 C 219.316406 641.144531 194.226562 674.648438 210.269531 706.265625 C 225.683594 736.636719 273.132812 752 351.414062 752 C 355.5625 752 359.792969 751.953125 364.117188 751.871094 C 369.800781 751.757812 374.324219 747.050781 374.207031 741.359375 C 374.097656 735.667969 369.660156 731.085938 363.695312 731.265625 Z M 363.695312 731.265625 "/>
</g>
</svg>
